<?xml version="1.0" encoding="utf-8"?>
<!-- Generator: Adobe Illustrator 16.0.0, SVG Export Plug-In . SVG Version: 6.00 Build 0)  -->
<!DOCTYPE svg PUBLIC "-//W3C//DTD SVG 1.1//EN" "http://www.w3.org/Graphics/SVG/1.1/DTD/svg11.dtd">
<svg version="1.1" id="레이어_1" xmlns="http://www.w3.org/2000/svg" xmlns:xlink="http://www.w3.org/1999/xlink" x="0px"
	 y="0px" width="139.25px" height="164.046px" viewBox="0 0 139.25 164.046" enable-background="new 0 0 139.25 164.046"
	 xml:space="preserve">
<path fill="#F2E125" d="M9.25,35.795c0,0,28.5-20,45.75,11.25c0,0,14-39-51.5-43L9.25,35.795z"/>
<path fill="#F2E125" d="M130.006,35.795c0,0-28.5-20-45.75,11.25c0,0-14-39,51.5-43L130.006,35.795z"/>
<path fill="#F2E125" d="M36.5,145.545c0,0,6.5-24.91,32.75-24.455s30,19.205,34.75,24.455S68.75,174.795,36.5,145.545z"/>
<path fill="#33B597" d="M0,0.045c0,0,0.837,96.75,68.543,108c0,0,61.707,0,70.707-108h-10c0,0,3.837,85.75-60.707,99.25
	c0,0-52.543-6.5-59.793-99.25H0z"/>
<path fill="#33B597" d="M86.75,137.045l-7.75-3.25c0,0-5.663,9.84-10.457,9.295c0,0-7.043-3.045-8.293-9.295l-8.75,3
	c0,0,3,5.5,13.5,13.25l-0.25,5.25c0,0-25.75,0.25-28.5-20.25c0,0-4.75-10,14.5-47c0,0,13.75-28.25,9-54.75
	C57.047,23.762,49,11.795,37.159,7.246C15.621-1.028,0,0.045,0,0.045l0.55,9.292c0,0,55.7-9.042,51.7,44.708
	c0,0-1.75,13.5-20.5,55.75c0,0-21.913,49.75,36.793,54.25c0,0,57.207,0.75,39.207-52.75c0,0-21.25-47.25-21-57.25
	c0,0-9-47.25,51.5-45.25l1-8.75h-10c0,0-41.25,0.5-50,33.25c0,0-7.75,21.75,9,54.25c0,0,16.5,31.5,12.5,47.75
	c0,0-0.151,16.374-27.25,20v-4.75C73.5,150.545,83,145.795,86.75,137.045z"/>
<rect id="_x3C_분할_영역_x3E_" x="40" y="39" fill="none" width="165" height="184"/>
</svg>
